<?xml version="1.0" encoding="UTF-8" standalone="no"?>
<!-- Created with Inkscape (http://www.inkscape.org/) -->

<svg
   xmlns:dc="http://purl.org/dc/elements/1.1/"
   xmlns:cc="http://creativecommons.org/ns#"
   xmlns:rdf="http://www.w3.org/1999/02/22-rdf-syntax-ns#"
   xmlns:svg="http://www.w3.org/2000/svg"
   xmlns="http://www.w3.org/2000/svg"
   xmlns:sodipodi="http://sodipodi.sourceforge.net/DTD/sodipodi-0.dtd"
   xmlns:inkscape="http://www.inkscape.org/namespaces/inkscape"
   width="73.266571mm"
   height="70.381195mm"
   viewBox="0 0 259.60596 249.38219"
   id="svg2"
   version="1.1"
   inkscape:version="0.91 r13725"
   sodipodi:docname="girl.svg">
  <defs
     id="defs4" />
  <sodipodi:namedview
     id="base"
     pagecolor="#ffffff"
     bordercolor="#666666"
     borderopacity="1.0"
     inkscape:pageopacity="0.0"
     inkscape:pageshadow="2"
     inkscape:zoom="1.771875"
     inkscape:cx="107.59915"
     inkscape:cy="120.22438"
     inkscape:document-units="px"
     inkscape:current-layer="layer2"
     showgrid="false"
     fit-margin-top="0"
     fit-margin-left="0"
     fit-margin-right="0"
     fit-margin-bottom="0" />
  <metadata
     id="metadata7">
    <rdf:RDF>
      <cc:Work
         rdf:about="">
        <dc:format>image/svg+xml</dc:format>
        <dc:type
           rdf:resource="http://purl.org/dc/dcmitype/StillImage" />
        <dc:title></dc:title>
      </cc:Work>
    </rdf:RDF>
  </metadata>
  <g
     inkscape:label="Layer 1"
     inkscape:groupmode="layer"
     id="layer1"
     transform="translate(-166.16922,-400.68824)" />
  <g
     inkscape:groupmode="layer"
     id="layer2"
     inkscape:label="girl bitmap"
     transform="translate(-166.16922,-400.68824)">
    <path
       style="fill:#000000"
       d="m 379.38574,650.07042 c -7.8027,-2.23545 -26.55199,-5.05092 -27.72172,-6.87141 8.96536,3.2744 19.44329,1.77282 27.72172,6.87141 z m 9.3,-1.5072 c -7.24597,1.03529 -12.41968,-8.32564 -2.81028,-2.10728 2.37974,0.85416 9.88189,3.55185 2.81028,2.10728 z m 9.8,-0.6296 c -5.72805,-3.08355 -15.03644,-7.3143 -3.61981,-3.20452 1.00637,0.22516 9.56621,4.24868 3.61981,3.20452 z m -0.225,-11.61242 c -10.12281,0.54432 -28.44351,-6.73468 -32.91288,-5.05677 7.717,-9.45539 0.0617,-24.17337 4.50491,-35.57042 1.0142,-9.9212 2.43977,-19.80513 4.43298,-29.57864 -2.12005,7.80485 -16.07902,14.33795 -10.05396,0.84598 3.20188,-17.29568 5.38626,-34.7577 8.35687,-52.09194 5.87965,-12.65007 6.68057,-31.21352 -2.71253,-41.99826 -11.89124,-7.93633 -30.82875,6.12042 -24.46007,19.68267 3.8195,6.42019 3.01032,17.89168 -6.58684,12.60094 -7.09387,-1.89266 -8.2418,17.5284 -10.48305,5.4039 2.08979,-16.69824 18.33024,-30.02082 14.72831,-47.52893 -13.14325,-11.573 -3.84358,-29.8716 -3.84047,-44.41704 1.33559,-3.42705 12.28879,-2.01421 5.05177,-6.42908 10.10806,-12.82585 29.56269,-14.59753 43.17978,-6.9166 13.14776,11.07293 23.1162,27.42437 23.30699,45.02492 1.00535,8.76203 4.83893,24.20776 13.66811,23.28546 -0.55659,-5.82201 4.77753,7.25235 -2.66341,6.74198 11.59914,9.50658 -16.64144,35.36919 -25.00983,46.5274 -6.41309,13.07042 -14.7885,25.5935 -16.19772,40.39033 -0.0195,14.98144 -8.59239,26.68979 -9.27183,41.15438 -0.22443,9.66133 -1.40192,19.99193 11.16101,19.5635 4.91754,1.36729 16.18402,4.61351 15.80186,8.36622 z m -23.375,-80.15529 c 8.86333,-13.63466 14.55776,-29.25871 16.96165,-45.32263 -2.75913,-9.80607 -4.50254,13.4298 -8.62689,4.75306 -0.70334,13.87693 -5.3347,27.10539 -8.33476,40.56957 z m 28.03681,-88.84731 c 8.90797,-13.18926 4.23759,-31.11558 -5.30174,-42.62513 -5.34401,-3.54165 -7.31634,7.13304 -0.78383,2.57137 -7.54116,1.64078 3.52064,0.39407 -3.25161,4.52597 5.58741,5.52482 -8.69794,5.38569 -6.42173,-3.07759 -13.29446,-0.90457 2.59558,20.12019 -12.81908,18.36891 -8.78942,3.386 -6.46135,-5.48422 -3.66118,-6.77348 -11.90688,4.98167 -4.266,18.62613 6.02053,19.63077 7.60638,4.75751 16.84764,12.38585 26.21864,7.37918 z m -11.06934,-3.88852 c -15.46942,-4.23709 20.11788,-18.10645 5.6183,-6.2564 -5.4294,3.00318 3.20293,6.63853 -5.6183,6.2564 z m 4.45418,-6.24646 c 8.88654,-5.30532 -7.49789,0.60912 0,0 z m -9.64665,-5.1353 c 4.57882,-7.3437 10.8802,0.67125 0,0 z m 1.64476,-4.12082 c -3.557,-1.86351 1.73524,-1.99264 0,0 z m 7.44843,-1.39388 c 0.73182,-4.50511 0.83068,1.19851 0,0 z m -17.63781,-2.4 c 1.76265,-8.74188 -6.52641,1.19559 0,0 z m -12.01731,-3.9 c 8.82354,-6.20058 -6.42595,-2.12505 0,0 z m 40.63874,-7.73273 c -2.82277,-0.78025 2.62197,6.56569 0,0 z m -13.85181,1.60044 c -0.56654,-1.25293 -1.10378,0.89671 0,0 z m 21,200.83281 c -4.84168,2.65348 -22.73563,-5.95523 -8.53229,-3.72069 2.77445,1.43661 20.18493,3.71847 8.53229,3.72069 z m -60.73259,-0.57236 c 6.31095,-7.12156 10.89009,-0.91196 0,0 z m 65.26651,-1.75776 c -4.84007,-1.00527 -15.87625,-6.56529 -4.75835,-2.4994 0.70012,0.33839 12.00303,3.34141 4.75835,2.4994 z m -63.25392,-1.53744 c -2.74065,-8.02147 7.45562,-18.41271 2.64587,-19.5363 -2.71593,10.16651 5.57206,-25.20833 2.08135,-7.09312 -0.94574,8.30617 5.17595,21.98171 -4.72722,26.62942 z m -175.66553,-6.12313 c -18.09628,-4.76043 -16.45656,-30.91529 -2.94869,-40.25155 13.67867,-15.18792 28.70766,-29.07013 42.78068,-43.85224 15.01073,-16.84341 11.81981,-41.13336 16.73303,-61.68298 1.38974,-10.07247 -19.04281,-29.53124 -0.8643,-30.96032 15.75918,-0.92915 28.06422,13.91657 25.0692,29.19404 -0.61436,12.34957 6.05851,3.09881 7.55195,-3.3585 9.17341,-6.53403 -5.86517,22.41754 2.1712,16.22367 2.90842,-5.67285 9.63161,-15.95374 7.76957,-17.85494 8.70612,8.3781 18.95877,25.19234 6.63533,34.97994 -9.0795,3.65732 -10.19708,19.36913 2.28078,12.99198 3.79949,-4.80926 22.90771,-9.0587 10.10369,-1.14591 -12.16093,7.39646 -21.94013,22.13285 -37.89432,20.00958 -16.93702,-0.48156 -16.14298,17.90071 -18.19868,29.45708 -6.53285,11.19554 -18.53527,14.75905 -27.32832,23.55758 -8.27089,6.70782 -24.49375,10.39376 -22.98361,23.65704 11.02083,4.83737 27.08369,-0.46463 39.30464,-3.34451 19.5597,-2.76573 38.13689,-9.95244 56.32077,-17.3487 11.05929,-3.96946 21.82794,4.33883 27.81183,-8.43833 1.84123,-17.79638 -13.17929,-33.78931 -29.42747,-38.34044 13.78703,-5.96237 29.69827,2.00647 44.35189,0.24787 5.96126,-1.73217 21.29233,-12.51361 16.64123,1.99344 -2.704,13.91934 3.59734,30.18384 -5.80119,42.33917 -15.72376,9.14102 -33.99784,2.30066 -50.57631,5.00766 -7.85263,2.23713 -25.97814,6.18169 -25.59567,13.25436 5.66046,1.77103 24.36633,5.46046 20.61868,7.19967 -16.27642,1.1292 -33.49524,-7.91842 -49.07303,-1.37976 6.58778,3.84186 20.06148,0.0427 28.71525,4.08433 -23.54628,0.73281 -46.91421,5.65127 -70.53265,3.7226 -4.54372,0.1067 -9.09242,0.25525 -13.63548,0.0382 z m 133.36053,-76.90848 c -1.21761,-0.9707 -0.63738,0.71207 0,0 z m -78.43615,-53.18763 c -1.55901,-1.83413 1.05808,1.95862 0,0 z m 143.25999,123.71113 c -2.78795,-6.12945 8.35534,-20.43649 3.1624,-6.31328 -0.61043,1.94345 -0.45651,5.97025 -3.1624,6.31328 z m -164.19884,-2.54256 c 0.92213,-0.75031 0.4236,1.23235 0,0 z"
       id="path4209"
       inkscape:connector-curvature="0"
       sodipodi:nodetypes="ccccccccccccccccccccccccccccccccccccccccccccccccccccccccccccccccccccccccccccccccccccccccccccccccccccccccccccccccccc" />
  </g>
</svg>
