<?xml version="1.0" encoding="UTF-8" standalone="no"?>
<svg
   xmlns:dc="http://purl.org/dc/elements/1.1/"
   xmlns:cc="http://creativecommons.org/ns#"
   xmlns:rdf="http://www.w3.org/1999/02/22-rdf-syntax-ns#"
   xmlns:svg="http://www.w3.org/2000/svg"
   xmlns="http://www.w3.org/2000/svg"
   xmlns:xlink="http://www.w3.org/1999/xlink"
   version="1.1"
   id="svg2"
   viewBox="0 0 301.37501 50.000001"
   height="50"
   width="301.375">
  <defs
     id="defs4">
    <linearGradient
       id="linearGradient4152"
       gradientUnits="userSpaceOnUse"
       y2="827.36218"
       x2="400.6875"
       y1="777.36218"
       x1="99.3125"
       >
      <stop
         id="stop4154"
         offset="0"
         style="stop-color:#4b4b4b;stop-opacity:1" />
      <stop
         style="stop-color:#8f8f8f;stop-opacity:0.65882355"
         offset="0.33882043"
         id="stop4160" />
      <stop
         id="stop4156"
         offset="1"
         style="stop-color:#9f9f9f;stop-opacity:0" />
    </linearGradient>
  </defs>
  <metadata
     id="metadata7">
    <rdf:RDF>
      <cc:Work
         rdf:about="">
        <dc:format>image/svg+xml</dc:format>
        <dc:type
           rdf:resource="http://purl.org/dc/dcmitype/StillImage" />
        <dc:title></dc:title>
      </cc:Work>
    </rdf:RDF>
  </metadata>
  <g
     transform="translate(-99.3125,-225)"
     style="display:inline"
     id="layer3">
    <path
       id="ellipse4235-3"
       d="m 400.6875,225 -301.375,0 0,50 301.375,0 0,-50 z"
       style="display:inline;opacity:1;fill:#353535;fill-opacity:1;fill-rule:nonzero;stroke:none;stroke-width:4.43877268;stroke-linecap:butt;stroke-linejoin:miter;stroke-miterlimit:4;stroke-dasharray:none;stroke-dashoffset:0;stroke-opacity:1" />
    <path
       id="ellipse4235"
       d="m 400.6875,777.36216 -301.375,0 0,50 301.375,0 0,-50 z m -5.6875,15 0,20 c 0,2.76999 -2.23001,5 -5,5 -2.76999,0 -5,-2.23001 -5,-5 l 0,-20 c 0,-2.76999 2.23001,-5 5,-5 2.76999,0 5,2.23001 5,5 z m -20,0 0,20 c 0,2.76999 -2.23001,5 -5,5 -2.76999,0 -5,-2.23001 -5,-5 l 0,-20 c 0,-2.76999 2.23001,-5 5,-5 2.76999,0 5,2.23001 5,5 z m -20,0 0,20 c 0,2.76999 -2.23001,5 -5,5 -2.76999,0 -5,-2.23001 -5,-5 l 0,-20 c 0,-2.76999 2.23001,-5 5,-5 2.76999,0 5,2.23001 5,5 z m -20,0 0,20 c 0,2.76999 -2.23001,5 -5,5 -2.76999,0 -5,-2.23001 -5,-5 l 0,-20 c 0,-2.76999 2.23001,-5 5,-5 2.76999,0 5,2.23001 5,5 z m -20,0 0,20 c 0,2.76999 -2.23001,5 -5,5 -2.76999,0 -5,-2.23001 -5,-5 l 0,-20 c 0,-2.76999 2.23001,-5 5,-5 2.76999,0 5,2.23001 5,5 z m -20,0 0,20 c 0,2.76999 -2.23001,5 -5,5 -2.76999,0 -5,-2.23001 -5,-5 l 0,-20 c 0,-2.76999 2.23001,-5 5,-5 2.76999,0 5,2.23001 5,5 z m -20,0 0,20 c 0,2.76999 -2.23001,5 -5,5 -2.76999,0 -5,-2.23001 -5,-5 l 0,-20 c 0,-2.76999 2.23001,-5 5,-5 2.76999,0 5,2.23001 5,5 z m -20,0 0,20 c 0,2.76999 -2.23001,5 -5,5 -2.76999,0 -5,-2.23001 -5,-5 l 0,-20 c 0,-2.76999 2.23001,-5 5,-5 2.76999,0 5,2.23001 5,5 z m -20,0 0,20 c 0,2.76999 -2.23001,5 -5,5 -2.76999,0 -5,-2.23001 -5,-5 l 0,-20 c 0,-2.76999 2.23001,-5 5,-5 2.76999,0 5,2.23001 5,5 z m -20,0 0,20 c 0,2.76999 -2.23001,5 -5,5 -2.76999,0 -5,-2.23001 -5,-5 l 0,-20 c 0,-2.76999 2.23001,-5 5,-5 2.76999,0 5,2.23001 5,5 z m -20,0 0,20 c 0,2.76999 -2.23001,5 -5,5 -2.76999,0 -5,-2.23001 -5,-5 l 0,-20 c 0,-2.76999 2.23001,-5 5,-5 2.76999,0 5,2.23001 5,5 z m -20,0 0,20 c 0,2.76999 -2.23001,5 -5,5 -2.76999,0 -5,-2.23001 -5,-5 l 0,-20 c 0,-2.76999 2.23001,-5 5,-5 2.76999,0 5,2.23001 5,5 z m -20,0 0,20 c 0,2.76999 -2.23001,5 -5,5 -2.76999,0 -5,-2.23001 -5,-5 l 0,-20 c 0,-2.76999 2.23001,-5 5,-5 2.76999,0 5,2.23001 5,5 z m -20,0 0,20 c 0,2.76999 -2.23001,5 -5,5 -2.76999,0 -5,-2.23001 -5,-5 l 0,-20 c 0,-2.76999 2.23001,-5 5,-5 2.76999,0 5,2.23001 5,5 z m -20,0 0,20 c 0,2.76999 -2.23001,5 -5,5 -2.76999,0 -5,-2.23001 -5,-5 l 0,-20 c 0,-2.76999 2.23001,-5 5,-5 2.76999,0 5,2.23001 5,5 z"
       style="display:inline;opacity:1;fill:url(#linearGradient4152);fill-opacity:1;fill-rule:nonzero;stroke:none;stroke-width:4.43877268;stroke-linecap:butt;stroke-linejoin:miter;stroke-miterlimit:4;stroke-dasharray:none;stroke-dashoffset:0;stroke-opacity:1"
       transform="translate(0,-552.36216)" />
  </g>
</svg>
