<?xml version="1.0" encoding="UTF-8" standalone="no"?>
<!-- Created with Inkscape (http://www.inkscape.org/) -->

<svg
   xmlns:dc="http://purl.org/dc/elements/1.1/"
   xmlns:cc="http://creativecommons.org/ns#"
   xmlns:rdf="http://www.w3.org/1999/02/22-rdf-syntax-ns#"
   xmlns:svg="http://www.w3.org/2000/svg"
   xmlns="http://www.w3.org/2000/svg"
   xmlns:xlink="http://www.w3.org/1999/xlink"
   xmlns:sodipodi="http://sodipodi.sourceforge.net/DTD/sodipodi-0.dtd"
   xmlns:inkscape="http://www.inkscape.org/namespaces/inkscape"
   width="500"
   height="500"
   viewBox="0 0 500.00001 500.00001"
   id="svg2"
   version="1.1"
   inkscape:version="0.91 r13725"
   sodipodi:docname="vert_wheel_6.svg">
  <defs
     id="defs4">
    <linearGradient
       id="linearGradient4261"
       inkscape:collect="always">
      <stop
         id="stop4263"
         offset="0"
         style="stop-color:#555555;stop-opacity:1" />
      <stop
         id="stop4265"
         offset="1"
         style="stop-color:#000000;stop-opacity:1" />
    </linearGradient>
    <linearGradient
       inkscape:collect="always"
       id="linearGradient4165">
      <stop
         style="stop-color:#929292;stop-opacity:1"
         offset="0"
         id="stop4167" />
      <stop
         style="stop-color:#000000;stop-opacity:1"
         offset="1"
         id="stop4169" />
    </linearGradient>
    <radialGradient
       inkscape:collect="always"
       xlink:href="#linearGradient4165"
       id="radialGradient4171"
       cx="247.80943"
       cy="803.95221"
       fx="247.80943"
       fy="803.95221"
       r="137.14285"
       gradientTransform="matrix(0.47530869,2.5185182,-1.3465989,0.25413869,1209.7358,-61.621347)"
       gradientUnits="userSpaceOnUse" />
    <radialGradient
       inkscape:collect="always"
       xlink:href="#linearGradient4261"
       id="radialGradient4171-4"
       cx="247.80943"
       cy="803.95221"
       fx="247.80943"
       fy="803.95221"
       r="137.14285"
       gradientTransform="matrix(0.47530869,2.5185182,-1.3465989,0.25413869,1209.7358,-613.98351)"
       gradientUnits="userSpaceOnUse" />
    <radialGradient
       inkscape:collect="always"
       xlink:href="#linearGradient4165"
       id="radialGradient5288"
       gradientUnits="userSpaceOnUse"
       gradientTransform="matrix(0.47530869,2.5185182,-1.3465989,0.25413869,1209.7358,-613.98351)"
       cx="247.80943"
       cy="803.95221"
       fx="247.80943"
       fy="803.95221"
       r="137.14285" />
  </defs>
  <sodipodi:namedview
     id="base"
     pagecolor="#ffffff"
     bordercolor="#666666"
     borderopacity="1.0"
     inkscape:pageopacity="0.0"
     inkscape:pageshadow="2"
     inkscape:zoom="1.771875"
     inkscape:cx="218.2716"
     inkscape:cy="294.2499"
     inkscape:document-units="px"
     inkscape:current-layer="g4233"
     showgrid="false"
     units="px"
     inkscape:snap-center="true"
     inkscape:snap-object-midpoints="true"
     showguides="true"
     inkscape:guide-bbox="true"
     inkscape:snap-bbox="true"
     inkscape:bbox-paths="true"
     inkscape:snap-bbox-midpoints="true"
     inkscape:snap-midpoints="true"
     inkscape:bbox-nodes="true"
     inkscape:snap-bbox-edge-midpoints="true"
     guidetolerance="30"
     inkscape:object-paths="true"
     inkscape:snap-intersection-paths="true"
     inkscape:object-nodes="true"
     inkscape:snap-smooth-nodes="true"
     inkscape:snap-text-baseline="true"
     inkscape:snap-global="false">
    <sodipodi:guide
       position="225,275.97884"
       orientation="1,0"
       id="guide4184"
       inkscape:label=""
       inkscape:color="rgb(0,0,255)" />
    <sodipodi:guide
       position="275.00001,275.13228"
       orientation="1,0"
       id="guide4186"
       inkscape:label=""
       inkscape:color="rgb(0,0,255)" />
    <inkscape:grid
       type="xygrid"
       id="grid4267" />
  </sodipodi:namedview>
  <metadata
     id="metadata7">
    <rdf:RDF>
      <cc:Work
         rdf:about="">
        <dc:format>image/svg+xml</dc:format>
        <dc:type
           rdf:resource="http://purl.org/dc/dcmitype/StillImage" />
        <dc:title></dc:title>
      </cc:Work>
    </rdf:RDF>
  </metadata>
  <g
     inkscape:label="wheel base (orig)"
     inkscape:groupmode="layer"
     id="layer1"
     transform="translate(0,-552.36216)"
     style="display:none"
     sodipodi:insensitive="true">
    <ellipse
       style="opacity:1;fill:url(#radialGradient4171);fill-opacity:1;fill-rule:nonzero;stroke:none;stroke-width:4.43877268;stroke-linecap:butt;stroke-linejoin:miter;stroke-miterlimit:4;stroke-dasharray:none;stroke-dashoffset:0;stroke-opacity:1"
       id="path4155"
       cx="250"
       cy="802.36218"
       rx="137.14285"
       ry="187.93651" />
  </g>
  <g
     inkscape:groupmode="layer"
     id="layer3"
     inkscape:label="darker wheel base"
     style="display:inline"
     sodipodi:insensitive="true">
    <ellipse
       ry="187.93651"
       rx="137.14285"
       cy="250"
       cx="250"
       id="ellipse4235-3"
       style="display:inline;opacity:1;fill:url(#radialGradient4171-4);fill-opacity:1;fill-rule:nonzero;stroke:none;stroke-width:4.43877268;stroke-linecap:butt;stroke-linejoin:miter;stroke-miterlimit:4;stroke-dasharray:none;stroke-dashoffset:0;stroke-opacity:1" />
  </g>
  <g
     style="display:inline"
     transform="translate(0,-552.36216)"
     id="g4233"
     inkscape:groupmode="layer"
     inkscape:label="wheel base (w cutouts)">
    <path
       style="opacity:1;fill:url(#radialGradient5288);fill-opacity:1;fill-rule:nonzero;stroke:none;stroke-width:4.43877268;stroke-linecap:butt;stroke-linejoin:miter;stroke-miterlimit:4;stroke-dasharray:none;stroke-dashoffset:0;stroke-opacity:1"
       d="M 250 62.064453 A 137.14285 187.93651 0 0 0 112.85742 250 A 137.14285 187.93651 0 0 0 250 437.9375 A 137.14285 187.93651 0 0 0 387.14258 250 A 137.14285 187.93651 0 0 0 250 62.064453 z M 240 109 L 260 109 C 262.76999 109 265 111.23001 265 114 C 265 116.76999 262.76999 119 260 119 L 240 119 C 237.23001 119 235 116.76999 235 114 C 235 111.23001 237.23001 109 240 109 z M 240 129 L 260 129 C 262.76999 129 265 131.23001 265 134 C 265 136.76999 262.76999 139 260 139 L 240 139 C 237.23001 139 235 136.76999 235 134 C 235 131.23001 237.23001 129 240 129 z M 240 149 L 260 149 C 262.76999 149 265 151.23001 265 154 C 265 156.76999 262.76999 159 260 159 L 240 159 C 237.23001 159 235 156.76999 235 154 C 235 151.23001 237.23001 149 240 149 z M 240 169 L 260 169 C 262.76999 169 265 171.23001 265 174 C 265 176.76999 262.76999 179 260 179 L 240 179 C 237.23001 179 235 176.76999 235 174 C 235 171.23001 237.23001 169 240 169 z M 240 189 L 260 189 C 262.76999 189 265 191.23001 265 194 C 265 196.76999 262.76999 199 260 199 L 240 199 C 237.23001 199 235 196.76999 235 194 C 235 191.23001 237.23001 189 240 189 z M 240 209 L 260 209 C 262.76999 209 265 211.23001 265 214 C 265 216.76999 262.76999 219 260 219 L 240 219 C 237.23001 219 235 216.76999 235 214 C 235 211.23001 237.23001 209 240 209 z M 240 229 L 260 229 C 262.76999 229 265 231.23001 265 234 C 265 236.76999 262.76999 239 260 239 L 240 239 C 237.23001 239 235 236.76999 235 234 C 235 231.23001 237.23001 229 240 229 z M 240 249 L 260 249 C 262.76999 249 265 251.23001 265 254 C 265 256.76999 262.76999 259 260 259 L 240 259 C 237.23001 259 235 256.76999 235 254 C 235 251.23001 237.23001 249 240 249 z M 240 269 L 260 269 C 262.76999 269 265 271.23001 265 274 C 265 276.76999 262.76999 279 260 279 L 240 279 C 237.23001 279 235 276.76999 235 274 C 235 271.23001 237.23001 269 240 269 z M 240 289 L 260 289 C 262.76999 289 265 291.23001 265 294 C 265 296.76999 262.76999 299 260 299 L 240 299 C 237.23001 299 235 296.76999 235 294 C 235 291.23001 237.23001 289 240 289 z M 240 309 L 260 309 C 262.76999 309 265 311.23001 265 314 C 265 316.76999 262.76999 319 260 319 L 240 319 C 237.23001 319 235 316.76999 235 314 C 235 311.23001 237.23001 309 240 309 z M 240 329 L 260 329 C 262.76999 329 265 331.23001 265 334 C 265 336.76999 262.76999 339 260 339 L 240 339 C 237.23001 339 235 336.76999 235 334 C 235 331.23001 237.23001 329 240 329 z M 240 349 L 260 349 C 262.76999 349 265 351.23001 265 354 C 265 356.76999 262.76999 359 260 359 L 240 359 C 237.23001 359 235 356.76999 235 354 C 235 351.23001 237.23001 349 240 349 z M 240 369 L 260 369 C 262.76999 369 265 371.23001 265 374 C 265 376.76999 262.76999 379 260 379 L 240 379 C 237.23001 379 235 376.76999 235 374 C 235 371.23001 237.23001 369 240 369 z M 240 389 L 260 389 C 262.76999 389 265 391.23001 265 394 C 265 396.76999 262.76999 399 260 399 L 240 399 C 237.23001 399 235 396.76999 235 394 C 235 391.23001 237.23001 389 240 389 z "
       transform="translate(0,552.36216)"
       id="ellipse4235" />
  </g>
  <g
     inkscape:groupmode="layer"
     id="layer4"
     inkscape:label="cutouts"
     style="display:none"
     sodipodi:insensitive="true">
    <g
       transform="translate(0,-552.36216)"
       style="display:inline"
       id="g4374">
      <rect
         style="opacity:1;fill:#941616;fill-opacity:1;fill-rule:nonzero;stroke:none;stroke-width:3;stroke-linecap:butt;stroke-linejoin:miter;stroke-miterlimit:4;stroke-dasharray:none;stroke-dashoffset:0;stroke-opacity:1"
         id="rect4376"
         width="30"
         height="10"
         x="235"
         y="657.36218"
         ry="4.9999776" />
      <rect
         ry="4.9999776"
         y="677.36218"
         x="235"
         height="10"
         width="30"
         id="rect4378"
         style="opacity:1;fill:#941616;fill-opacity:1;fill-rule:nonzero;stroke:none;stroke-width:3;stroke-linecap:butt;stroke-linejoin:miter;stroke-miterlimit:4;stroke-dasharray:none;stroke-dashoffset:0;stroke-opacity:1" />
      <rect
         style="opacity:1;fill:#941616;fill-opacity:1;fill-rule:nonzero;stroke:none;stroke-width:3;stroke-linecap:butt;stroke-linejoin:miter;stroke-miterlimit:4;stroke-dasharray:none;stroke-dashoffset:0;stroke-opacity:1"
         id="rect4380"
         width="30"
         height="10"
         x="235"
         y="697.36218"
         ry="4.9999776" />
      <rect
         ry="4.9999776"
         y="717.36218"
         x="235"
         height="10"
         width="30"
         id="rect4382"
         style="opacity:1;fill:#941616;fill-opacity:1;fill-rule:nonzero;stroke:none;stroke-width:3;stroke-linecap:butt;stroke-linejoin:miter;stroke-miterlimit:4;stroke-dasharray:none;stroke-dashoffset:0;stroke-opacity:1" />
      <rect
         style="opacity:1;fill:#941616;fill-opacity:1;fill-rule:nonzero;stroke:none;stroke-width:3;stroke-linecap:butt;stroke-linejoin:miter;stroke-miterlimit:4;stroke-dasharray:none;stroke-dashoffset:0;stroke-opacity:1"
         id="rect4384"
         width="30"
         height="10"
         x="235"
         y="737.36218"
         ry="4.9999776" />
      <rect
         ry="4.9999776"
         y="757.36218"
         x="235"
         height="10"
         width="30"
         id="rect4386"
         style="opacity:1;fill:#941616;fill-opacity:1;fill-rule:nonzero;stroke:none;stroke-width:3;stroke-linecap:butt;stroke-linejoin:miter;stroke-miterlimit:4;stroke-dasharray:none;stroke-dashoffset:0;stroke-opacity:1" />
      <rect
         style="opacity:1;fill:#941616;fill-opacity:1;fill-rule:nonzero;stroke:none;stroke-width:3;stroke-linecap:butt;stroke-linejoin:miter;stroke-miterlimit:4;stroke-dasharray:none;stroke-dashoffset:0;stroke-opacity:1"
         id="rect4388"
         width="30"
         height="10"
         x="235"
         y="777.36218"
         ry="4.9999776" />
      <rect
         ry="4.9999776"
         y="797.36218"
         x="235"
         height="10"
         width="30"
         id="rect4390"
         style="opacity:1;fill:#941616;fill-opacity:1;fill-rule:nonzero;stroke:none;stroke-width:3;stroke-linecap:butt;stroke-linejoin:miter;stroke-miterlimit:4;stroke-dasharray:none;stroke-dashoffset:0;stroke-opacity:1" />
      <rect
         style="opacity:1;fill:#941616;fill-opacity:1;fill-rule:nonzero;stroke:none;stroke-width:3;stroke-linecap:butt;stroke-linejoin:miter;stroke-miterlimit:4;stroke-dasharray:none;stroke-dashoffset:0;stroke-opacity:1"
         id="rect4392"
         width="30"
         height="10"
         x="235"
         y="817.36218"
         ry="4.9999776" />
      <rect
         ry="4.9999776"
         y="837.36218"
         x="235"
         height="10"
         width="30"
         id="rect4394"
         style="opacity:1;fill:#941616;fill-opacity:1;fill-rule:nonzero;stroke:none;stroke-width:3;stroke-linecap:butt;stroke-linejoin:miter;stroke-miterlimit:4;stroke-dasharray:none;stroke-dashoffset:0;stroke-opacity:1" />
      <rect
         style="opacity:1;fill:#941616;fill-opacity:1;fill-rule:nonzero;stroke:none;stroke-width:3;stroke-linecap:butt;stroke-linejoin:miter;stroke-miterlimit:4;stroke-dasharray:none;stroke-dashoffset:0;stroke-opacity:1"
         id="rect4396"
         width="30"
         height="10"
         x="235"
         y="857.36218"
         ry="4.9999776" />
      <rect
         ry="4.9999776"
         y="877.36218"
         x="235"
         height="10"
         width="30"
         id="rect4398"
         style="opacity:1;fill:#941616;fill-opacity:1;fill-rule:nonzero;stroke:none;stroke-width:3;stroke-linecap:butt;stroke-linejoin:miter;stroke-miterlimit:4;stroke-dasharray:none;stroke-dashoffset:0;stroke-opacity:1" />
      <rect
         style="opacity:1;fill:#941616;fill-opacity:1;fill-rule:nonzero;stroke:none;stroke-width:3;stroke-linecap:butt;stroke-linejoin:miter;stroke-miterlimit:4;stroke-dasharray:none;stroke-dashoffset:0;stroke-opacity:1"
         id="rect4400"
         width="30"
         height="10"
         x="235"
         y="897.36218"
         ry="4.9999776" />
      <rect
         ry="4.9999776"
         y="917.36218"
         x="235"
         height="10"
         width="30"
         id="rect4402"
         style="opacity:1;fill:#941616;fill-opacity:1;fill-rule:nonzero;stroke:none;stroke-width:3;stroke-linecap:butt;stroke-linejoin:miter;stroke-miterlimit:4;stroke-dasharray:none;stroke-dashoffset:0;stroke-opacity:1" />
      <rect
         ry="4.9999776"
         y="937.36218"
         x="235"
         height="10"
         width="30"
         id="rect4404"
         style="opacity:1;fill:#941616;fill-opacity:1;fill-rule:nonzero;stroke:none;stroke-width:3;stroke-linecap:butt;stroke-linejoin:miter;stroke-miterlimit:4;stroke-dasharray:none;stroke-dashoffset:0;stroke-opacity:1" />
    </g>
  </g>
  <g
     inkscape:groupmode="layer"
     id="layer2"
     inkscape:label="mask"
     sodipodi:insensitive="true">
    <path
       style="opacity:1;fill:#9c9c9f;fill-opacity:1;fill-rule:nonzero;stroke:none;stroke-width:3;stroke-linecap:butt;stroke-linejoin:miter;stroke-miterlimit:4;stroke-dasharray:none;stroke-dashoffset:0;stroke-opacity:1"
       d="m 34.550781,21.851562 0,456.296878 430.898439,0 0,-456.296878 z M 225,99.3125 l 50,0 0,301.375 -50,0 z"
       id="rect4178"
       inkscape:connector-curvature="0"
       sodipodi:nodetypes="cccccccccc" />
  </g>
</svg>
