<?xml version="1.0" encoding="UTF-8" standalone="no"?>
<!-- Created with Inkscape (http://www.inkscape.org/) -->

<svg
   xmlns:dc="http://purl.org/dc/elements/1.1/"
   xmlns:cc="http://creativecommons.org/ns#"
   xmlns:rdf="http://www.w3.org/1999/02/22-rdf-syntax-ns#"
   xmlns:svg="http://www.w3.org/2000/svg"
   xmlns="http://www.w3.org/2000/svg"
   xmlns:xlink="http://www.w3.org/1999/xlink"
   xmlns:sodipodi="http://sodipodi.sourceforge.net/DTD/sodipodi-0.dtd"
   xmlns:inkscape="http://www.inkscape.org/namespaces/inkscape"
   width="500"
   height="500"
   viewBox="0 0 500.00001 500.00001"
   id="svg2"
   version="1.1"
   inkscape:version="0.91 r13725"
   sodipodi:docname="vert_wheel_all 02 (no mask).svg">
  <defs
     id="defs4">
    <linearGradient
       id="linearGradient4261"
       inkscape:collect="always">
      <stop
         id="stop4263"
         offset="0"
         style="stop-color:#555555;stop-opacity:1" />
      <stop
         id="stop4265"
         offset="1"
         style="stop-color:#000000;stop-opacity:1" />
    </linearGradient>
    <linearGradient
       inkscape:collect="always"
       id="linearGradient4165">
      <stop
         style="stop-color:#929292;stop-opacity:1"
         offset="0"
         id="stop4167" />
      <stop
         style="stop-color:#000000;stop-opacity:1"
         offset="1"
         id="stop4169" />
    </linearGradient>
    <radialGradient
       inkscape:collect="always"
       xlink:href="#linearGradient4261"
       id="radialGradient4171-4"
       cx="247.80943"
       cy="803.95221"
       fx="247.80943"
       fy="803.95221"
       r="137.14285"
       gradientTransform="matrix(0.47530869,2.5185182,-1.3465989,0.25413869,1209.7358,-613.98351)"
       gradientUnits="userSpaceOnUse" />
    <radialGradient
       inkscape:collect="always"
       xlink:href="#linearGradient4165"
       id="radialGradient4438"
       gradientUnits="userSpaceOnUse"
       gradientTransform="matrix(0.47530869,2.5185182,-1.3465989,0.25413869,1209.7358,-613.98351)"
       cx="247.80943"
       cy="803.95221"
       fx="247.80943"
       fy="803.95221"
       r="137.14285" />
    <radialGradient
       inkscape:collect="always"
       xlink:href="#linearGradient4165"
       id="radialGradient4508"
       gradientUnits="userSpaceOnUse"
       gradientTransform="matrix(0.47530869,2.5185182,-1.3465989,0.25413869,1209.7358,-613.98351)"
       cx="247.80943"
       cy="803.95221"
       fx="247.80943"
       fy="803.95221"
       r="137.14285" />
    <radialGradient
       inkscape:collect="always"
       xlink:href="#linearGradient4165"
       id="radialGradient4561"
       gradientUnits="userSpaceOnUse"
       gradientTransform="matrix(0.47530869,2.5185182,-1.3465989,0.25413869,1209.7358,-613.98351)"
       cx="247.80943"
       cy="803.95221"
       fx="247.80943"
       fy="803.95221"
       r="137.14285" />
    <radialGradient
       inkscape:collect="always"
       xlink:href="#linearGradient4165"
       id="radialGradient4598"
       gradientUnits="userSpaceOnUse"
       gradientTransform="matrix(0.47530869,2.5185182,-1.3465989,0.25413869,1209.7358,-613.98351)"
       cx="247.80943"
       cy="803.95221"
       fx="247.80943"
       fy="803.95221"
       r="137.14285" />
    <radialGradient
       inkscape:collect="always"
       xlink:href="#linearGradient4165"
       id="radialGradient5288"
       gradientUnits="userSpaceOnUse"
       gradientTransform="matrix(0.47530869,2.5185182,-1.3465989,0.25413869,1209.7358,-613.98351)"
       cx="247.80943"
       cy="803.95221"
       fx="247.80943"
       fy="803.95221"
       r="137.14285" />
  </defs>
  <sodipodi:namedview
     id="base"
     pagecolor="#ffffff"
     bordercolor="#666666"
     borderopacity="1.0"
     inkscape:pageopacity="0.0"
     inkscape:pageshadow="2"
     inkscape:zoom="1.771875"
     inkscape:cx="235.76719"
     inkscape:cy="277.88305"
     inkscape:document-units="px"
     inkscape:current-layer="layer3"
     showgrid="false"
     units="px"
     inkscape:snap-center="true"
     inkscape:snap-object-midpoints="true"
     showguides="true"
     inkscape:guide-bbox="true"
     inkscape:snap-bbox="true"
     inkscape:bbox-paths="true"
     inkscape:snap-bbox-midpoints="true"
     inkscape:snap-midpoints="true"
     inkscape:bbox-nodes="true"
     inkscape:snap-bbox-edge-midpoints="true"
     guidetolerance="30"
     inkscape:object-paths="true"
     inkscape:snap-intersection-paths="true"
     inkscape:object-nodes="true"
     inkscape:snap-smooth-nodes="true"
     inkscape:snap-text-baseline="true"
     inkscape:snap-global="false">
    <sodipodi:guide
       position="225,275.97884"
       orientation="1,0"
       id="guide4184"
       inkscape:label=""
       inkscape:color="rgb(0,0,255)" />
    <sodipodi:guide
       position="275.00001,275.13228"
       orientation="1,0"
       id="guide4186"
       inkscape:label=""
       inkscape:color="rgb(0,0,255)" />
    <inkscape:grid
       type="xygrid"
       id="grid4267" />
  </sodipodi:namedview>
  <metadata
     id="metadata7">
    <rdf:RDF>
      <cc:Work
         rdf:about="">
        <dc:format>image/svg+xml</dc:format>
        <dc:type
           rdf:resource="http://purl.org/dc/dcmitype/StillImage" />
        <dc:title></dc:title>
      </cc:Work>
    </rdf:RDF>
  </metadata>
  <g
     inkscape:groupmode="layer"
     id="layer3"
     inkscape:label="darker wheel base"
     style="display:inline">
    <path
       style="display:inline;opacity:1;fill:url(#radialGradient4171-4);fill-opacity:1;fill-rule:nonzero;stroke:none;stroke-width:4.43877268;stroke-linecap:butt;stroke-linejoin:miter;stroke-miterlimit:4;stroke-dasharray:none;stroke-dashoffset:0;stroke-opacity:1"
       d="m 225,99.3125 0,301.375 50,0 0,-301.375 -50,0 z"
       id="ellipse4235-3"
       inkscape:connector-curvature="0" />
  </g>
  <g
     style="display:none"
     transform="translate(0,-552.36216)"
     id="g4233"
     inkscape:groupmode="layer"
     inkscape:label="cutouts 1">
    <path
       style="opacity:1;fill:url(#radialGradient4438);fill-opacity:1;fill-rule:nonzero;stroke:none;stroke-width:4.43877268;stroke-linecap:butt;stroke-linejoin:miter;stroke-miterlimit:4;stroke-dasharray:none;stroke-dashoffset:0;stroke-opacity:1"
       d="m 225,99.3125 0,301.375 50,0 0,-301.375 -50,0 z m 15,5.6875 20,0 c 2.76999,0 5,2.23001 5,5 0,2.76999 -2.23001,5 -5,5 l -20,0 c -2.76999,0 -5,-2.23001 -5,-5 0,-2.76999 2.23001,-5 5,-5 z m 0,20 20,0 c 2.76999,0 5,2.23001 5,5 0,2.76999 -2.23001,5 -5,5 l -20,0 c -2.76999,0 -5,-2.23001 -5,-5 0,-2.76999 2.23001,-5 5,-5 z m 0,20 20,0 c 2.76999,0 5,2.23001 5,5 0,2.76999 -2.23001,5 -5,5 l -20,0 c -2.76999,0 -5,-2.23001 -5,-5 0,-2.76999 2.23001,-5 5,-5 z m 0,20 20,0 c 2.76999,0 5,2.23001 5,5 0,2.76999 -2.23001,5 -5,5 l -20,0 c -2.76999,0 -5,-2.23001 -5,-5 0,-2.76999 2.23001,-5 5,-5 z m 0,20 20,0 c 2.76999,0 5,2.23001 5,5 0,2.76999 -2.23001,5 -5,5 l -20,0 c -2.76999,0 -5,-2.23001 -5,-5 0,-2.76999 2.23001,-5 5,-5 z m 0,20 20,0 c 2.76999,0 5,2.23001 5,5 0,2.76999 -2.23001,5 -5,5 l -20,0 c -2.76999,0 -5,-2.23001 -5,-5 0,-2.76999 2.23001,-5 5,-5 z m 0,20 20,0 c 2.76999,0 5,2.23001 5,5 0,2.76999 -2.23001,5 -5,5 l -20,0 c -2.76999,0 -5,-2.23001 -5,-5 0,-2.76999 2.23001,-5 5,-5 z m 0,20 20,0 c 2.76999,0 5,2.23001 5,5 0,2.76999 -2.23001,5 -5,5 l -20,0 c -2.76999,0 -5,-2.23001 -5,-5 0,-2.76999 2.23001,-5 5,-5 z m 0,20 20,0 c 2.76999,0 5,2.23001 5,5 0,2.76999 -2.23001,5 -5,5 l -20,0 c -2.76999,0 -5,-2.23001 -5,-5 0,-2.76999 2.23001,-5 5,-5 z m 0,20 20,0 c 2.76999,0 5,2.23001 5,5 0,2.76999 -2.23001,5 -5,5 l -20,0 c -2.76999,0 -5,-2.23001 -5,-5 0,-2.76999 2.23001,-5 5,-5 z m 0,20 20,0 c 2.76999,0 5,2.23001 5,5 0,2.76999 -2.23001,5 -5,5 l -20,0 c -2.76999,0 -5,-2.23001 -5,-5 0,-2.76999 2.23001,-5 5,-5 z m 0,20 20,0 c 2.76999,0 5,2.23001 5,5 0,2.76999 -2.23001,5 -5,5 l -20,0 c -2.76999,0 -5,-2.23001 -5,-5 0,-2.76999 2.23001,-5 5,-5 z m 0,20 20,0 c 2.76999,0 5,2.23001 5,5 0,2.76999 -2.23001,5 -5,5 l -20,0 c -2.76999,0 -5,-2.23001 -5,-5 0,-2.76999 2.23001,-5 5,-5 z m 0,20 20,0 c 2.76999,0 5,2.23001 5,5 0,2.76999 -2.23001,5 -5,5 l -20,0 c -2.76999,0 -5,-2.23001 -5,-5 0,-2.76999 2.23001,-5 5,-5 z m 0,20 20,0 c 2.76999,0 5,2.23001 5,5 0,2.76999 -2.23001,5 -5,5 l -20,0 c -2.76999,0 -5,-2.23001 -5,-5 0,-2.76999 2.23001,-5 5,-5 z"
       transform="translate(0,552.36216)"
       id="ellipse4235"
       inkscape:connector-curvature="0" />
  </g>
  <g
     inkscape:groupmode="layer"
     id="layer5"
     inkscape:label="cutouts 2"
     style="display:none">
    <path
       style="display:inline;opacity:1;fill:url(#radialGradient4508);fill-opacity:1;fill-rule:nonzero;stroke:none;stroke-width:4.43877268;stroke-linecap:butt;stroke-linejoin:miter;stroke-miterlimit:4;stroke-dasharray:none;stroke-dashoffset:0;stroke-opacity:1"
       d="m 225,99.3125 0,301.375 50,0 0,-301.375 -50,0 z m 15,1.68555 20,0 c 2.76999,0 5,2.23001 5,5 0,2.76999 -2.23001,5 -5,5 l -20,0 c -2.76999,0 -5,-2.23001 -5,-5 0,-2.76999 2.23001,-5 5,-5 z m 0,20 20,0 c 2.76999,0 5,2.23001 5,5 0,2.76999 -2.23001,5 -5,5 l -20,0 c -2.76999,0 -5,-2.23001 -5,-5 0,-2.76999 2.23001,-5 5,-5 z m 0,20 20,0 c 2.76999,0 5,2.23001 5,5 0,2.76999 -2.23001,5 -5,5 l -20,0 c -2.76999,0 -5,-2.23001 -5,-5 0,-2.76999 2.23001,-5 5,-5 z m 0,20 20,0 c 2.76999,0 5,2.23001 5,5 0,2.76999 -2.23001,5 -5,5 l -20,0 c -2.76999,0 -5,-2.23001 -5,-5 0,-2.76999 2.23001,-5 5,-5 z m 0,20 20,0 c 2.76999,0 5,2.23001 5,5 0,2.76999 -2.23001,5 -5,5 l -20,0 c -2.76999,0 -5,-2.23001 -5,-5 0,-2.76999 2.23001,-5 5,-5 z m 0,20 20,0 c 2.76999,0 5,2.23001 5,5 0,2.76999 -2.23001,5 -5,5 l -20,0 c -2.76999,0 -5,-2.23001 -5,-5 0,-2.76999 2.23001,-5 5,-5 z m 0,20 20,0 c 2.76999,0 5,2.23001 5,5 0,2.76999 -2.23001,5 -5,5 l -20,0 c -2.76999,0 -5,-2.23001 -5,-5 0,-2.76999 2.23001,-5 5,-5 z m 0,20 20,0 c 2.76999,0 5,2.23001 5,5 0,2.76999 -2.23001,5 -5,5 l -20,0 c -2.76999,0 -5,-2.23001 -5,-5 0,-2.76999 2.23001,-5 5,-5 z m 0,20 20,0 c 2.76999,0 5,2.23001 5,5 0,2.76999 -2.23001,5 -5,5 l -20,0 c -2.76999,0 -5,-2.23001 -5,-5 0,-2.76999 2.23001,-5 5,-5 z m 0,20 20,0 c 2.76999,0 5,2.23001 5,5 0,2.76999 -2.23001,5 -5,5 l -20,0 c -2.76999,0 -5,-2.23001 -5,-5 0,-2.76999 2.23001,-5 5,-5 z m 0,20 20,0 c 2.76999,0 5,2.23001 5,5 0,2.76999 -2.23001,5 -5,5 l -20,0 c -2.76999,0 -5,-2.23001 -5,-5 0,-2.76999 2.23001,-5 5,-5 z m 0,20 20,0 c 2.76999,0 5,2.23001 5,5 0,2.76999 -2.23001,5 -5,5 l -20,0 c -2.76999,0 -5,-2.23001 -5,-5 0,-2.76999 2.23001,-5 5,-5 z m 0,20 20,0 c 2.76999,0 5,2.23001 5,5 0,2.76999 -2.23001,5 -5,5 l -20,0 c -2.76999,0 -5,-2.23001 -5,-5 0,-2.76999 2.23001,-5 5,-5 z m 0,20 20,0 c 2.76999,0 5,2.23001 5,5 0,2.76999 -2.23001,5 -5,5 l -20,0 c -2.76999,0 -5,-2.23001 -5,-5 0,-2.76999 2.23001,-5 5,-5 z m 0,20 20,0 c 2.76999,0 5,2.23001 5,5 0,2.76999 -2.23001,5 -5,5 l -20,0 c -2.76999,0 -5,-2.23001 -5,-5 0,-2.76999 2.23001,-5 5,-5 z"
       id="ellipse4235-4"
       inkscape:connector-curvature="0" />
  </g>
  <g
     inkscape:groupmode="layer"
     id="layer6"
     inkscape:label="cutouts 3"
     style="display:none">
    <path
       style="display:inline;opacity:1;fill:url(#radialGradient4561);fill-opacity:1;fill-rule:nonzero;stroke:none;stroke-width:4.43877268;stroke-linecap:butt;stroke-linejoin:miter;stroke-miterlimit:4;stroke-dasharray:none;stroke-dashoffset:0;stroke-opacity:1"
       d="m 225,99.3125 0,301.375 10.19531,0 c 0.57617,-2.12556 2.49187,-3.68945 4.80469,-3.68945 l 20,0 c 2.31282,0 4.22852,1.56389 4.80469,3.68945 l 10.19531,0 0,-301.375 -10.79102,0 c 0.49503,0.7762 0.79102,1.69286 0.79102,2.68555 0,2.76999 -2.23001,5 -5,5 l -20,0 c -2.76999,0 -5,-2.23001 -5,-5 0,-0.99269 0.29599,-1.90935 0.79102,-2.68555 l -10.79102,0 z m 15,17.68555 20,0 c 2.76999,0 5,2.23001 5,5 0,2.76999 -2.23001,5 -5,5 l -20,0 c -2.76999,0 -5,-2.23001 -5,-5 0,-2.76999 2.23001,-5 5,-5 z m 0,20 20,0 c 2.76999,0 5,2.23001 5,5 0,2.76999 -2.23001,5 -5,5 l -20,0 c -2.76999,0 -5,-2.23001 -5,-5 0,-2.76999 2.23001,-5 5,-5 z m 0,20 20,0 c 2.76999,0 5,2.23001 5,5 0,2.76999 -2.23001,5 -5,5 l -20,0 c -2.76999,0 -5,-2.23001 -5,-5 0,-2.76999 2.23001,-5 5,-5 z m 0,20 20,0 c 2.76999,0 5,2.23001 5,5 0,2.76999 -2.23001,5 -5,5 l -20,0 c -2.76999,0 -5,-2.23001 -5,-5 0,-2.76999 2.23001,-5 5,-5 z m 0,20 20,0 c 2.76999,0 5,2.23001 5,5 0,2.76999 -2.23001,5 -5,5 l -20,0 c -2.76999,0 -5,-2.23001 -5,-5 0,-2.76999 2.23001,-5 5,-5 z m 0,20 20,0 c 2.76999,0 5,2.23001 5,5 0,2.76999 -2.23001,5 -5,5 l -20,0 c -2.76999,0 -5,-2.23001 -5,-5 0,-2.76999 2.23001,-5 5,-5 z m 0,20 20,0 c 2.76999,0 5,2.23001 5,5 0,2.76999 -2.23001,5 -5,5 l -20,0 c -2.76999,0 -5,-2.23001 -5,-5 0,-2.76999 2.23001,-5 5,-5 z m 0,20 20,0 c 2.76999,0 5,2.23001 5,5 0,2.76999 -2.23001,5 -5,5 l -20,0 c -2.76999,0 -5,-2.23001 -5,-5 0,-2.76999 2.23001,-5 5,-5 z m 0,20 20,0 c 2.76999,0 5,2.23001 5,5 0,2.76999 -2.23001,5 -5,5 l -20,0 c -2.76999,0 -5,-2.23001 -5,-5 0,-2.76999 2.23001,-5 5,-5 z m 0,20 20,0 c 2.76999,0 5,2.23001 5,5 0,2.76999 -2.23001,5 -5,5 l -20,0 c -2.76999,0 -5,-2.23001 -5,-5 0,-2.76999 2.23001,-5 5,-5 z m 0,20 20,0 c 2.76999,0 5,2.23001 5,5 0,2.76999 -2.23001,5 -5,5 l -20,0 c -2.76999,0 -5,-2.23001 -5,-5 0,-2.76999 2.23001,-5 5,-5 z m 0,20 20,0 c 2.76999,0 5,2.23001 5,5 0,2.76999 -2.23001,5 -5,5 l -20,0 c -2.76999,0 -5,-2.23001 -5,-5 0,-2.76999 2.23001,-5 5,-5 z m 0,20 20,0 c 2.76999,0 5,2.23001 5,5 0,2.76999 -2.23001,5 -5,5 l -20,0 c -2.76999,0 -5,-2.23001 -5,-5 0,-2.76999 2.23001,-5 5,-5 z m 0,20 20,0 c 2.76999,0 5,2.23001 5,5 0,2.76999 -2.23001,5 -5,5 l -20,0 c -2.76999,0 -5,-2.23001 -5,-5 0,-2.76999 2.23001,-5 5,-5 z"
       id="ellipse4235-5"
       inkscape:connector-curvature="0" />
  </g>
  <g
     inkscape:groupmode="layer"
     id="layer7"
     inkscape:label="cutouts 4"
     style="display:none">
    <path
       style="display:inline;opacity:1;fill:url(#radialGradient4598);fill-opacity:1;fill-rule:nonzero;stroke:none;stroke-width:4.43877268;stroke-linecap:butt;stroke-linejoin:miter;stroke-miterlimit:4;stroke-dasharray:none;stroke-dashoffset:0;stroke-opacity:1"
       d="m 225,99.3125 0,301.375 10.79102,0 C 235.29543,399.911 235,398.99135 235,397.99805 c 0,-2.76999 2.23001,-5 5,-5 l 20,0 c 2.76999,0 5,2.23001 5,5 0,0.9933 -0.29543,1.91295 -0.79102,2.68945 l 10.79102,0 0,-301.375 -10.19531,0 c -0.57678,2.12463 -2.49252,3.68555 -4.80469,3.68555 l -20,0 c -2.31217,0 -4.22791,-1.56092 -4.80469,-3.68555 l -10.19531,0 z m 15,13.68555 20,0 c 2.76999,0 5,2.23001 5,5 0,2.76999 -2.23001,5 -5,5 l -20,0 c -2.76999,0 -5,-2.23001 -5,-5 0,-2.76999 2.23001,-5 5,-5 z m 0,20 20,0 c 2.76999,0 5,2.23001 5,5 0,2.76999 -2.23001,5 -5,5 l -20,0 c -2.76999,0 -5,-2.23001 -5,-5 0,-2.76999 2.23001,-5 5,-5 z m 0,20 20,0 c 2.76999,0 5,2.23001 5,5 0,2.76999 -2.23001,5 -5,5 l -20,0 c -2.76999,0 -5,-2.23001 -5,-5 0,-2.76999 2.23001,-5 5,-5 z m 0,20 20,0 c 2.76999,0 5,2.23001 5,5 0,2.76999 -2.23001,5 -5,5 l -20,0 c -2.76999,0 -5,-2.23001 -5,-5 0,-2.76999 2.23001,-5 5,-5 z m 0,20 20,0 c 2.76999,0 5,2.23001 5,5 0,2.76999 -2.23001,5 -5,5 l -20,0 c -2.76999,0 -5,-2.23001 -5,-5 0,-2.76999 2.23001,-5 5,-5 z m 0,20 20,0 c 2.76999,0 5,2.23001 5,5 0,2.76999 -2.23001,5 -5,5 l -20,0 c -2.76999,0 -5,-2.23001 -5,-5 0,-2.76999 2.23001,-5 5,-5 z m 0,20 20,0 c 2.76999,0 5,2.23001 5,5 0,2.76999 -2.23001,5 -5,5 l -20,0 c -2.76999,0 -5,-2.23001 -5,-5 0,-2.76999 2.23001,-5 5,-5 z m 0,20 20,0 c 2.76999,0 5,2.23001 5,5 0,2.76999 -2.23001,5 -5,5 l -20,0 c -2.76999,0 -5,-2.23001 -5,-5 0,-2.76999 2.23001,-5 5,-5 z m 0,20 20,0 c 2.76999,0 5,2.23001 5,5 0,2.76999 -2.23001,5 -5,5 l -20,0 c -2.76999,0 -5,-2.23001 -5,-5 0,-2.76999 2.23001,-5 5,-5 z m 0,20 20,0 c 2.76999,0 5,2.23001 5,5 0,2.76999 -2.23001,5 -5,5 l -20,0 c -2.76999,0 -5,-2.23001 -5,-5 0,-2.76999 2.23001,-5 5,-5 z m 0,20 20,0 c 2.76999,0 5,2.23001 5,5 0,2.76999 -2.23001,5 -5,5 l -20,0 c -2.76999,0 -5,-2.23001 -5,-5 0,-2.76999 2.23001,-5 5,-5 z m 0,20 20,0 c 2.76999,0 5,2.23001 5,5 0,2.76999 -2.23001,5 -5,5 l -20,0 c -2.76999,0 -5,-2.23001 -5,-5 0,-2.76999 2.23001,-5 5,-5 z m 0,20 20,0 c 2.76999,0 5,2.23001 5,5 0,2.76999 -2.23001,5 -5,5 l -20,0 c -2.76999,0 -5,-2.23001 -5,-5 0,-2.76999 2.23001,-5 5,-5 z m 0,20 20,0 c 2.76999,0 5,2.23001 5,5 0,2.76999 -2.23001,5 -5,5 l -20,0 c -2.76999,0 -5,-2.23001 -5,-5 0,-2.76999 2.23001,-5 5,-5 z"
       id="ellipse4235-0"
       inkscape:connector-curvature="0" />
  </g>
  <g
     inkscape:groupmode="layer"
     id="layer8"
     inkscape:label="cutouts 5"
     style="display:inline">
    <path
       style="display:inline;opacity:1;fill:url(#radialGradient5288);fill-opacity:1;fill-rule:nonzero;stroke:none;stroke-width:4.43877268;stroke-linecap:butt;stroke-linejoin:miter;stroke-miterlimit:4;stroke-dasharray:none;stroke-dashoffset:0;stroke-opacity:1"
       d="M 225 99.3125 L 225 400.6875 L 275 400.6875 L 275 99.3125 L 225 99.3125 z M 240 108.99805 L 260 108.99805 C 262.76999 108.99805 265 111.22806 265 113.99805 C 265 116.76804 262.76999 118.99805 260 118.99805 L 240 118.99805 C 237.23001 118.99805 235 116.76804 235 113.99805 C 235 111.22806 237.23001 108.99805 240 108.99805 z M 240 128.99805 L 260 128.99805 C 262.76999 128.99805 265 131.22806 265 133.99805 C 265 136.76804 262.76999 138.99805 260 138.99805 L 240 138.99805 C 237.23001 138.99805 235 136.76804 235 133.99805 C 235 131.22806 237.23001 128.99805 240 128.99805 z M 240 148.99805 L 260 148.99805 C 262.76999 148.99805 265 151.22806 265 153.99805 C 265 156.76804 262.76999 158.99805 260 158.99805 L 240 158.99805 C 237.23001 158.99805 235 156.76804 235 153.99805 C 235 151.22806 237.23001 148.99805 240 148.99805 z M 240 168.99805 L 260 168.99805 C 262.76999 168.99805 265 171.22806 265 173.99805 C 265 176.76804 262.76999 178.99805 260 178.99805 L 240 178.99805 C 237.23001 178.99805 235 176.76804 235 173.99805 C 235 171.22806 237.23001 168.99805 240 168.99805 z M 240 188.99805 L 260 188.99805 C 262.76999 188.99805 265 191.22806 265 193.99805 C 265 196.76804 262.76999 198.99805 260 198.99805 L 240 198.99805 C 237.23001 198.99805 235 196.76804 235 193.99805 C 235 191.22806 237.23001 188.99805 240 188.99805 z M 240 208.99805 L 260 208.99805 C 262.76999 208.99805 265 211.22806 265 213.99805 C 265 216.76804 262.76999 218.99805 260 218.99805 L 240 218.99805 C 237.23001 218.99805 235 216.76804 235 213.99805 C 235 211.22806 237.23001 208.99805 240 208.99805 z M 240 228.99805 L 260 228.99805 C 262.76999 228.99805 265 231.22806 265 233.99805 C 265 236.76804 262.76999 238.99805 260 238.99805 L 240 238.99805 C 237.23001 238.99805 235 236.76804 235 233.99805 C 235 231.22806 237.23001 228.99805 240 228.99805 z M 240 248.99805 L 260 248.99805 C 262.76999 248.99805 265 251.22806 265 253.99805 C 265 256.76804 262.76999 258.99805 260 258.99805 L 240 258.99805 C 237.23001 258.99805 235 256.76804 235 253.99805 C 235 251.22806 237.23001 248.99805 240 248.99805 z M 240 268.99805 L 260 268.99805 C 262.76999 268.99805 265 271.22806 265 273.99805 C 265 276.76804 262.76999 278.99805 260 278.99805 L 240 278.99805 C 237.23001 278.99805 235 276.76804 235 273.99805 C 235 271.22806 237.23001 268.99805 240 268.99805 z M 240 288.99805 L 260 288.99805 C 262.76999 288.99805 265 291.22806 265 293.99805 C 265 296.76804 262.76999 298.99805 260 298.99805 L 240 298.99805 C 237.23001 298.99805 235 296.76804 235 293.99805 C 235 291.22806 237.23001 288.99805 240 288.99805 z M 240 308.99805 L 260 308.99805 C 262.76999 308.99805 265 311.22806 265 313.99805 C 265 316.76804 262.76999 318.99805 260 318.99805 L 240 318.99805 C 237.23001 318.99805 235 316.76804 235 313.99805 C 235 311.22806 237.23001 308.99805 240 308.99805 z M 240 328.99805 L 260 328.99805 C 262.76999 328.99805 265 331.22806 265 333.99805 C 265 336.76804 262.76999 338.99805 260 338.99805 L 240 338.99805 C 237.23001 338.99805 235 336.76804 235 333.99805 C 235 331.22806 237.23001 328.99805 240 328.99805 z M 240 348.99805 L 260 348.99805 C 262.76999 348.99805 265 351.22806 265 353.99805 C 265 356.76804 262.76999 358.99805 260 358.99805 L 240 358.99805 C 237.23001 358.99805 235 356.76804 235 353.99805 C 235 351.22806 237.23001 348.99805 240 348.99805 z M 240 368.99805 L 260 368.99805 C 262.76999 368.99805 265 371.22806 265 373.99805 C 265 376.76804 262.76999 378.99805 260 378.99805 L 240 378.99805 C 237.23001 378.99805 235 376.76804 235 373.99805 C 235 371.22806 237.23001 368.99805 240 368.99805 z M 240 388.99805 L 260 388.99805 C 262.76999 388.99805 265 391.22806 265 393.99805 C 265 396.76804 262.76999 398.99805 260 398.99805 L 240 398.99805 C 237.23001 398.99805 235 396.76804 235 393.99805 C 235 391.22806 237.23001 388.99805 240 388.99805 z "
       id="ellipse4235-08" />
  </g>
</svg>
