<?xml version="1.0" encoding="UTF-8" standalone="no"?>
<!-- Created with Inkscape (http://www.inkscape.org/) -->

<svg
   xmlns:dc="http://purl.org/dc/elements/1.1/"
   xmlns:cc="http://creativecommons.org/ns#"
   xmlns:rdf="http://www.w3.org/1999/02/22-rdf-syntax-ns#"
   xmlns:svg="http://www.w3.org/2000/svg"
   xmlns="http://www.w3.org/2000/svg"
   xmlns:sodipodi="http://sodipodi.sourceforge.net/DTD/sodipodi-0.dtd"
   xmlns:inkscape="http://www.inkscape.org/namespaces/inkscape"
   width="96mm"
   height="96mm"
   viewBox="0 0 340.15748 340.15748"
   id="svg2"
   version="1.1"
   inkscape:version="0.91 r13725"
   sodipodi:docname="volume incline MUTE - black.svg">
  <defs
     id="defs4" />
  <sodipodi:namedview
     id="base"
     pagecolor="#ffffff"
     bordercolor="#666666"
     borderopacity="1.0"
     inkscape:pageopacity="0.0"
     inkscape:pageshadow="2"
     inkscape:zoom="1.979899"
     inkscape:cx="170.92778"
     inkscape:cy="146.26886"
     inkscape:document-units="px"
     inkscape:current-layer="layer1"
     showgrid="false"
     inkscape:window-width="1440"
     inkscape:window-height="851"
     inkscape:window-x="0"
     inkscape:window-y="1"
     inkscape:window-maximized="1" />
  <metadata
     id="metadata7">
    <rdf:RDF>
      <cc:Work
         rdf:about="">
        <dc:format>image/svg+xml</dc:format>
        <dc:type
           rdf:resource="http://purl.org/dc/dcmitype/StillImage" />
        <dc:title></dc:title>
      </cc:Work>
    </rdf:RDF>
  </metadata>
  <g
     inkscape:label="Layer 1"
     inkscape:groupmode="layer"
     id="layer1"
     transform="translate(0,-712.20472)">
    <path
       style="fill:#000000;fill-opacity:1;fill-rule:evenodd;stroke:#ffffff;stroke-width:0.5243091px;stroke-linecap:butt;stroke-linejoin:miter;stroke-opacity:1"
       d="m 20.771201,918.317 299.007329,0 0,-71.99646 z"
       id="path4136"
       inkscape:connector-curvature="0" />
    <path
       style="fill:#000000;fill-opacity:1;stroke:#ffffff;stroke-width:0.965;stroke-linecap:round;stroke-miterlimit:4;stroke-dasharray:none;stroke-opacity:1"
       d="M 170.07787,771.96749 A 110.3157,110.31569 0 0 0 59.76277,882.2826 110.3157,110.31569 0 0 0 170.07787,992.59944 110.3157,110.31569 0 0 0 280.39471,882.2826 110.3157,110.31569 0 0 0 170.07787,771.96749 Z m 0,8.82576 a 101.49042,101.49042 0 0 1 61.70069,21.06896 L 101.59079,957.01418 A 101.49042,101.49042 0 0 1 68.58853,882.2826 101.49042,101.49042 0 0 1 170.07787,780.79325 Z m 68.48706,26.75948 A 101.49042,101.49042 0 0 1 271.56894,882.2826 101.49042,101.49042 0 0 1 170.07787,983.77367 101.49042,101.49042 0 0 1 108.37716,962.70471 L 238.56493,807.55273 Z"
       id="path4835"
       inkscape:connector-curvature="0" />
  </g>
</svg>
